G75*
G70*
%OFA0B0*%
%FSLAX24Y24*%
%IPPOS*%
%LPD*%
%AMOC8*
5,1,8,0,0,1.08239X$1,22.5*
%
%ADD10C,0.1182*%
%ADD11C,0.0516*%
%ADD12C,0.0280*%
D10*
X001681Y001631D03*
X001681Y022497D03*
X038689Y022891D03*
D11*
X009926Y020172D03*
X009426Y020172D03*
X008926Y020172D03*
X008426Y020172D03*
X008426Y019672D03*
X008926Y019672D03*
X009426Y019672D03*
X009926Y019672D03*
X009926Y018672D03*
X009426Y018672D03*
X008926Y018672D03*
X008426Y018672D03*
X008426Y018172D03*
X008926Y018172D03*
X009426Y018172D03*
X009926Y018172D03*
X007926Y018172D03*
X007426Y018172D03*
X006926Y018172D03*
X006426Y018172D03*
X005926Y018172D03*
X005426Y018172D03*
X005426Y018672D03*
X005926Y018672D03*
X006426Y018672D03*
X006926Y018672D03*
X007426Y018672D03*
X007926Y018672D03*
X007926Y019672D03*
X007426Y019672D03*
X006926Y019672D03*
X006426Y019672D03*
X005926Y019672D03*
X005426Y019672D03*
X004926Y019672D03*
X004426Y019672D03*
X003926Y019672D03*
X003426Y019672D03*
X003426Y020172D03*
X003926Y020172D03*
X004426Y020172D03*
X004926Y020172D03*
X005426Y020172D03*
X005926Y020172D03*
X006426Y020172D03*
X006926Y020172D03*
X007426Y020172D03*
X007926Y020172D03*
D12*
X008791Y015273D03*
X007918Y014752D03*
X007890Y014490D03*
X007889Y014230D03*
X007646Y014230D03*
X007510Y013739D03*
X007210Y013538D03*
X007037Y013704D03*
X006985Y013407D03*
X004991Y013501D03*
X004780Y013367D03*
X004582Y013706D03*
X004819Y014006D03*
X004669Y014375D03*
X004761Y014625D03*
X003715Y014441D03*
X002797Y011100D03*
X003096Y009334D03*
X001304Y008489D03*
X004704Y006904D03*
X005863Y006168D03*
X006238Y004807D03*
X006506Y004807D03*
X006867Y004012D03*
X007162Y003895D03*
X005321Y004012D03*
X010296Y004808D03*
X013374Y009506D03*
X013583Y010731D03*
X013723Y011065D03*
X013327Y011037D03*
X013087Y011047D03*
X013634Y011659D03*
X013356Y011834D03*
X013442Y012077D03*
X013478Y012472D03*
X012654Y013702D03*
X012599Y014850D03*
X012413Y015012D03*
X009412Y013464D03*
X015820Y010572D03*
X017731Y007350D03*
X017387Y007042D03*
X017279Y005803D03*
X021642Y006564D03*
X022903Y007850D03*
X022633Y008422D03*
M02*
