%
M48
M72
T01C0.0040
T02C0.0236
T03C0.1102
%
T01
X5321Y4012
X6238Y4807
X6506Y4807
X6867Y4012
X7162Y3895
X10296Y4808
X5863Y6168
X4704Y6904
X1304Y8489
X3096Y9334
X2797Y11100
X4780Y13367
X4991Y13501
X4582Y13706
X4819Y14006
X4669Y14375
X4761Y14625
X3715Y14441
X7037Y13704
X7210Y13538
X6985Y13407
X7510Y13739
X7646Y14230
X7889Y14230
X7890Y14490
X7918Y14752
X8791Y15273
X9412Y13464
X12654Y13702
X12599Y14850
X12413Y15012
X13478Y12472
X13442Y12077
X13356Y11834
X13634Y11659
X13723Y11065
X13583Y10731
X13327Y11037
X13087Y11047
X13374Y9506
X15820Y10572
X17731Y7350
X17387Y7042
X17279Y5803
X21642Y6564
X22903Y7850
X22633Y8422
T02
X9926Y18172
X9426Y18172
X8926Y18172
X8426Y18172
X7926Y18172
X7426Y18172
X6926Y18172
X6426Y18172
X5926Y18172
X5426Y18172
X5426Y18672
X5926Y18672
X6426Y18672
X6926Y18672
X7426Y18672
X7926Y18672
X8426Y18672
X8926Y18672
X9426Y18672
X9926Y18672
X9926Y19672
X9426Y19672
X8926Y19672
X8426Y19672
X7926Y19672
X7426Y19672
X6926Y19672
X6426Y19672
X5926Y19672
X5426Y19672
X4926Y19672
X4426Y19672
X3926Y19672
X3426Y19672
X3426Y20172
X3926Y20172
X4426Y20172
X4926Y20172
X5426Y20172
X5926Y20172
X6426Y20172
X6926Y20172
X7426Y20172
X7926Y20172
X8426Y20172
X8926Y20172
X9426Y20172
X9926Y20172
T03
X1681Y1631
X1681Y22497
X38689Y22891
M30
