%
M48
M72
T01C0.0400
%
T01
X1600Y3600
X1600Y5100
X1600Y6600
X1600Y8100
X1600Y9600
X1600Y11100
X1600Y12600
X1600Y14100
X1600Y15600
X1600Y17100
X1600Y18600
X1600Y20100
X1600Y21600
X1600Y23100
X1600Y24600
X1600Y26100
X1600Y27600
X1600Y29100
X1600Y30600
X1600Y32100
X15600Y32100
X15600Y30600
X15600Y29100
X15600Y27600
X15600Y26100
X15600Y24600
X15600Y23100
X15600Y21600
X15600Y20100
X15600Y18600
X15600Y17100
X15600Y15600
X15600Y14100
X15600Y12600
X15600Y11100
X15600Y9600
X15600Y8100
X15600Y6600
X15600Y5100
X15600Y3600
M30
