G75*
G70*
%OFA0B0*%
%FSLAX24Y24*%
%IPPOS*%
%LPD*%
%AMOC8*
5,1,8,0,0,1.08239X$1,22.5*
%
%ADD10C,0.0080*%
%ADD11C,0.0040*%
%ADD12C,0.0060*%
%ADD13C,0.0050*%
D10*
X004092Y000458D02*
X013108Y000458D01*
X013108Y000734D01*
X012990Y000734D01*
X012990Y000852D01*
X004210Y000852D01*
X004210Y000734D01*
X004092Y000734D01*
X004092Y000458D01*
X004092Y000852D02*
X004092Y001009D01*
X004092Y000852D02*
X004210Y000852D01*
X004683Y000734D02*
X004761Y000576D01*
X004840Y000734D01*
X004683Y000734D01*
X004692Y000716D02*
X004831Y000716D01*
X004792Y000637D02*
X004731Y000637D01*
X004092Y002191D02*
X004092Y002584D01*
X004565Y002584D01*
X012635Y002584D02*
X013108Y002584D01*
X013108Y002191D01*
X013108Y001009D02*
X013108Y000852D01*
X012990Y000852D01*
D11*
X004880Y003232D02*
X004573Y003232D01*
X004420Y003232D02*
X004113Y003693D01*
X004420Y003693D02*
X004113Y003232D01*
X004573Y003539D02*
X004727Y003693D01*
X004727Y003232D01*
D12*
X002050Y003150D02*
X002050Y003350D01*
X002050Y003150D02*
X001850Y003150D01*
X002050Y003850D02*
X002050Y004050D01*
X001850Y004050D01*
X001850Y004650D02*
X002050Y004650D01*
X002050Y004850D01*
X002050Y005350D02*
X002050Y005550D01*
X001850Y005550D01*
X001850Y006150D02*
X002050Y006150D01*
X002050Y006350D01*
X002050Y006850D02*
X002050Y007050D01*
X001850Y007050D01*
X001850Y007650D02*
X002050Y007650D01*
X002050Y007850D01*
X002050Y008350D02*
X002050Y008550D01*
X001850Y008550D01*
X001850Y009150D02*
X002050Y009150D01*
X002050Y009350D01*
X002050Y009850D02*
X002050Y010050D01*
X001850Y010050D01*
X001850Y010650D02*
X002050Y010650D01*
X002050Y010850D01*
X002050Y011350D02*
X002050Y011550D01*
X001850Y011550D01*
X001850Y012150D02*
X002050Y012150D01*
X002050Y012350D01*
X002050Y012850D02*
X002050Y013050D01*
X001850Y013050D01*
X001850Y013650D02*
X002050Y013650D01*
X002050Y013850D01*
X002050Y014350D02*
X002050Y014550D01*
X001850Y014550D01*
X001850Y015150D02*
X002050Y015150D01*
X002050Y015350D01*
X002050Y015850D02*
X002050Y016050D01*
X001850Y016050D01*
X001850Y016650D02*
X002050Y016650D01*
X002050Y016850D01*
X002050Y017350D02*
X002050Y017550D01*
X001850Y017550D01*
X001850Y018150D02*
X002050Y018150D01*
X002050Y018350D01*
X002050Y018850D02*
X002050Y019050D01*
X001850Y019050D01*
X001850Y019650D02*
X002050Y019650D01*
X002050Y019850D01*
X002050Y020350D02*
X002050Y020550D01*
X001850Y020550D01*
X001850Y021150D02*
X002050Y021150D01*
X002050Y021350D01*
X002050Y021850D02*
X002050Y022050D01*
X001850Y022050D01*
X001850Y022650D02*
X002050Y022650D01*
X002050Y022850D01*
X002050Y023350D02*
X002050Y023550D01*
X001850Y023550D01*
X001850Y024150D02*
X002050Y024150D01*
X002050Y024350D01*
X002050Y024850D02*
X002050Y025050D01*
X001850Y025050D01*
X001850Y025650D02*
X002050Y025650D01*
X002050Y025850D01*
X002050Y026350D02*
X002050Y026550D01*
X001850Y026550D01*
X001850Y027150D02*
X002050Y027150D01*
X002050Y027350D01*
X002050Y027850D02*
X002050Y028050D01*
X001850Y028050D01*
X001850Y028650D02*
X002050Y028650D01*
X002050Y028850D01*
X002050Y029350D02*
X002050Y029550D01*
X001850Y029550D01*
X001850Y030150D02*
X002050Y030150D01*
X002050Y030350D01*
X002050Y030850D02*
X002050Y031050D01*
X001850Y031050D01*
X001850Y031650D02*
X002050Y031650D01*
X002050Y031850D01*
X002050Y032350D02*
X002050Y032550D01*
X001850Y032550D01*
X001350Y032550D02*
X001150Y032550D01*
X001150Y032350D01*
X001150Y031850D02*
X001150Y031650D01*
X001350Y031650D01*
X001350Y031050D02*
X001150Y031050D01*
X001150Y030850D01*
X001150Y030350D02*
X001150Y030150D01*
X001350Y030150D01*
X001350Y029550D02*
X001150Y029550D01*
X001150Y029350D01*
X001150Y028850D02*
X001150Y028650D01*
X001350Y028650D01*
X001350Y028050D02*
X001150Y028050D01*
X001150Y027850D01*
X001150Y027350D02*
X001150Y027150D01*
X001350Y027150D01*
X001350Y026550D02*
X001150Y026550D01*
X001150Y026350D01*
X001150Y025850D02*
X001150Y025650D01*
X001350Y025650D01*
X001350Y025050D02*
X001150Y025050D01*
X001150Y024850D01*
X001150Y024350D02*
X001150Y024150D01*
X001350Y024150D01*
X001350Y023550D02*
X001150Y023550D01*
X001150Y023350D01*
X001150Y022850D02*
X001150Y022650D01*
X001350Y022650D01*
X001350Y022050D02*
X001150Y022050D01*
X001150Y021850D01*
X001150Y021350D02*
X001150Y021150D01*
X001350Y021150D01*
X001350Y020550D02*
X001150Y020550D01*
X001150Y020350D01*
X001150Y019850D02*
X001150Y019650D01*
X001350Y019650D01*
X001350Y019050D02*
X001150Y019050D01*
X001150Y018850D01*
X001150Y018350D02*
X001150Y018150D01*
X001350Y018150D01*
X001350Y017550D02*
X001150Y017550D01*
X001150Y017350D01*
X001150Y016850D02*
X001150Y016650D01*
X001350Y016650D01*
X001350Y016050D02*
X001150Y016050D01*
X001150Y015850D01*
X001150Y015350D02*
X001150Y015150D01*
X001350Y015150D01*
X001350Y014550D02*
X001150Y014550D01*
X001150Y014350D01*
X001150Y013850D02*
X001150Y013650D01*
X001350Y013650D01*
X001350Y013050D02*
X001150Y013050D01*
X001150Y012850D01*
X001150Y012350D02*
X001150Y012150D01*
X001350Y012150D01*
X001350Y011550D02*
X001150Y011550D01*
X001150Y011350D01*
X001150Y010850D02*
X001150Y010650D01*
X001350Y010650D01*
X001350Y010050D02*
X001150Y010050D01*
X001150Y009850D01*
X001150Y009350D02*
X001150Y009150D01*
X001350Y009150D01*
X001350Y008550D02*
X001150Y008550D01*
X001150Y008350D01*
X001150Y007850D02*
X001150Y007650D01*
X001350Y007650D01*
X001350Y007050D02*
X001150Y007050D01*
X001150Y006850D01*
X001150Y006350D02*
X001150Y006150D01*
X001350Y006150D01*
X001350Y005550D02*
X001150Y005550D01*
X001150Y005350D01*
X001150Y004850D02*
X001150Y004650D01*
X001350Y004650D01*
X001350Y004050D02*
X001150Y004050D01*
X001150Y003850D01*
X001150Y003350D02*
X001150Y003150D01*
X001350Y003150D01*
X015150Y003150D02*
X015150Y003350D01*
X015150Y003150D02*
X015350Y003150D01*
X015150Y003850D02*
X015150Y004050D01*
X015350Y004050D01*
X015350Y004650D02*
X015150Y004650D01*
X015150Y004850D01*
X015150Y005350D02*
X015150Y005550D01*
X015350Y005550D01*
X015350Y006150D02*
X015150Y006150D01*
X015150Y006350D01*
X015150Y006850D02*
X015150Y007050D01*
X015350Y007050D01*
X015350Y007650D02*
X015150Y007650D01*
X015150Y007850D01*
X015150Y008350D02*
X015150Y008550D01*
X015350Y008550D01*
X015350Y009150D02*
X015150Y009150D01*
X015150Y009350D01*
X015150Y009850D02*
X015150Y010050D01*
X015350Y010050D01*
X015350Y010650D02*
X015150Y010650D01*
X015150Y010850D01*
X015150Y011350D02*
X015150Y011550D01*
X015350Y011550D01*
X015350Y012150D02*
X015150Y012150D01*
X015150Y012350D01*
X015150Y012850D02*
X015150Y013050D01*
X015350Y013050D01*
X015350Y013650D02*
X015150Y013650D01*
X015150Y013850D01*
X015150Y014350D02*
X015150Y014550D01*
X015350Y014550D01*
X015350Y015150D02*
X015150Y015150D01*
X015150Y015350D01*
X015150Y015850D02*
X015150Y016050D01*
X015350Y016050D01*
X015350Y016650D02*
X015150Y016650D01*
X015150Y016850D01*
X015150Y017350D02*
X015150Y017550D01*
X015350Y017550D01*
X015350Y018150D02*
X015150Y018150D01*
X015150Y018350D01*
X015150Y018850D02*
X015150Y019050D01*
X015350Y019050D01*
X015350Y019650D02*
X015150Y019650D01*
X015150Y019850D01*
X015150Y020350D02*
X015150Y020550D01*
X015350Y020550D01*
X015350Y021150D02*
X015150Y021150D01*
X015150Y021350D01*
X015150Y021850D02*
X015150Y022050D01*
X015350Y022050D01*
X015350Y022650D02*
X015150Y022650D01*
X015150Y022850D01*
X015150Y023350D02*
X015150Y023550D01*
X015350Y023550D01*
X015350Y024150D02*
X015150Y024150D01*
X015150Y024350D01*
X015150Y024850D02*
X015150Y025050D01*
X015350Y025050D01*
X015350Y025650D02*
X015150Y025650D01*
X015150Y025850D01*
X015150Y026350D02*
X015150Y026550D01*
X015350Y026550D01*
X015350Y027150D02*
X015150Y027150D01*
X015150Y027350D01*
X015150Y027850D02*
X015150Y028050D01*
X015350Y028050D01*
X015350Y028650D02*
X015150Y028650D01*
X015150Y028850D01*
X015150Y029350D02*
X015150Y029550D01*
X015350Y029550D01*
X015350Y030150D02*
X015150Y030150D01*
X015150Y030350D01*
X015150Y030850D02*
X015150Y031050D01*
X015350Y031050D01*
X015350Y031650D02*
X015150Y031650D01*
X015150Y031850D01*
X015150Y032350D02*
X015150Y032550D01*
X015350Y032550D01*
X015850Y032550D02*
X016050Y032550D01*
X016050Y032350D01*
X016050Y031850D02*
X016050Y031650D01*
X015850Y031650D01*
X015850Y031050D02*
X016050Y031050D01*
X016050Y030850D01*
X016050Y030350D02*
X016050Y030150D01*
X015850Y030150D01*
X015850Y029550D02*
X016050Y029550D01*
X016050Y029350D01*
X016050Y028850D02*
X016050Y028650D01*
X015850Y028650D01*
X015850Y028050D02*
X016050Y028050D01*
X016050Y027850D01*
X016050Y027350D02*
X016050Y027150D01*
X015850Y027150D01*
X015850Y026550D02*
X016050Y026550D01*
X016050Y026350D01*
X016050Y025850D02*
X016050Y025650D01*
X015850Y025650D01*
X015850Y025050D02*
X016050Y025050D01*
X016050Y024850D01*
X016050Y024350D02*
X016050Y024150D01*
X015850Y024150D01*
X015850Y023550D02*
X016050Y023550D01*
X016050Y023350D01*
X016050Y022850D02*
X016050Y022650D01*
X015850Y022650D01*
X015850Y022050D02*
X016050Y022050D01*
X016050Y021850D01*
X016050Y021350D02*
X016050Y021150D01*
X015850Y021150D01*
X015850Y020550D02*
X016050Y020550D01*
X016050Y020350D01*
X016050Y019850D02*
X016050Y019650D01*
X015850Y019650D01*
X015850Y019050D02*
X016050Y019050D01*
X016050Y018850D01*
X016050Y018350D02*
X016050Y018150D01*
X015850Y018150D01*
X015850Y017550D02*
X016050Y017550D01*
X016050Y017350D01*
X016050Y016850D02*
X016050Y016650D01*
X015850Y016650D01*
X015850Y016050D02*
X016050Y016050D01*
X016050Y015850D01*
X016050Y015350D02*
X016050Y015150D01*
X015850Y015150D01*
X015850Y014550D02*
X016050Y014550D01*
X016050Y014350D01*
X016050Y013850D02*
X016050Y013650D01*
X015850Y013650D01*
X015850Y013050D02*
X016050Y013050D01*
X016050Y012850D01*
X016050Y012350D02*
X016050Y012150D01*
X015850Y012150D01*
X015850Y011550D02*
X016050Y011550D01*
X016050Y011350D01*
X016050Y010850D02*
X016050Y010650D01*
X015850Y010650D01*
X015850Y010050D02*
X016050Y010050D01*
X016050Y009850D01*
X016050Y009350D02*
X016050Y009150D01*
X015850Y009150D01*
X015850Y008550D02*
X016050Y008550D01*
X016050Y008350D01*
X016050Y007850D02*
X016050Y007650D01*
X015850Y007650D01*
X015850Y007050D02*
X016050Y007050D01*
X016050Y006850D01*
X016050Y006350D02*
X016050Y006150D01*
X015850Y006150D01*
X015850Y005550D02*
X016050Y005550D01*
X016050Y005350D01*
X016050Y004850D02*
X016050Y004650D01*
X015850Y004650D01*
X015850Y004050D02*
X016050Y004050D01*
X016050Y003850D01*
X016050Y003350D02*
X016050Y003150D01*
X015850Y003150D01*
D13*
X000575Y003175D02*
X000575Y003400D01*
X000650Y003475D01*
X000800Y003475D01*
X000875Y003400D01*
X000875Y003175D01*
X001025Y003175D02*
X000575Y003175D01*
X000725Y003635D02*
X000575Y003786D01*
X000725Y003936D01*
X001025Y003936D01*
X001025Y004096D02*
X001025Y004321D01*
X000950Y004396D01*
X000650Y004396D01*
X000575Y004321D01*
X000575Y004096D01*
X001025Y004096D01*
X001025Y003635D02*
X000725Y003635D01*
X000800Y003635D02*
X000800Y003936D01*
X000725Y004556D02*
X000575Y004706D01*
X001025Y004706D01*
X001025Y004675D02*
X000575Y004675D01*
X000575Y004900D01*
X000650Y004975D01*
X000800Y004975D01*
X000875Y004900D01*
X000875Y004675D01*
X001025Y004556D02*
X001025Y004856D01*
X001025Y005135D02*
X000725Y005135D01*
X000575Y005286D01*
X000725Y005436D01*
X001025Y005436D01*
X001025Y005596D02*
X001025Y005821D01*
X000950Y005896D01*
X000650Y005896D01*
X000575Y005821D01*
X000575Y005596D01*
X001025Y005596D01*
X001025Y006056D02*
X000725Y006356D01*
X000650Y006356D01*
X000575Y006281D01*
X000575Y006131D01*
X000650Y006056D01*
X000575Y006175D02*
X000575Y006400D01*
X000650Y006475D01*
X000800Y006475D01*
X000875Y006400D01*
X000875Y006175D01*
X001025Y006175D02*
X000575Y006175D01*
X000725Y006635D02*
X000575Y006786D01*
X000725Y006936D01*
X001025Y006936D01*
X001025Y007096D02*
X001025Y007321D01*
X000950Y007396D01*
X000650Y007396D01*
X000575Y007321D01*
X000575Y007096D01*
X001025Y007096D01*
X001025Y006635D02*
X000725Y006635D01*
X000800Y006635D02*
X000800Y006936D01*
X001025Y006356D02*
X001025Y006056D01*
X000800Y005436D02*
X000800Y005135D01*
X000950Y007556D02*
X001025Y007631D01*
X001025Y007781D01*
X000950Y007856D01*
X000875Y007856D01*
X000800Y007781D01*
X000800Y007706D01*
X000800Y007781D02*
X000725Y007856D01*
X000650Y007856D01*
X000575Y007781D01*
X000575Y007631D01*
X000650Y007556D01*
X000575Y007675D02*
X000575Y007900D01*
X000650Y007975D01*
X000800Y007975D01*
X000875Y007900D01*
X000875Y007675D01*
X001025Y007675D02*
X000575Y007675D01*
X000725Y008135D02*
X000575Y008286D01*
X000725Y008436D01*
X001025Y008436D01*
X001025Y008596D02*
X001025Y008821D01*
X000950Y008896D01*
X000650Y008896D01*
X000575Y008821D01*
X000575Y008596D01*
X001025Y008596D01*
X001025Y009175D02*
X000575Y009175D01*
X000575Y009400D01*
X000650Y009475D01*
X000800Y009475D01*
X000875Y009400D01*
X000875Y009175D01*
X000800Y009056D02*
X000800Y009356D01*
X001025Y009281D02*
X000575Y009281D01*
X000800Y009056D01*
X000800Y009635D02*
X000800Y009936D01*
X000725Y009936D02*
X001025Y009936D01*
X001025Y010096D02*
X001025Y010321D01*
X000950Y010396D01*
X000650Y010396D01*
X000575Y010321D01*
X000575Y010096D01*
X001025Y010096D01*
X001025Y009635D02*
X000725Y009635D01*
X000575Y009786D01*
X000725Y009936D01*
X000800Y010556D02*
X000575Y010556D01*
X000575Y010856D01*
X000575Y010900D02*
X000650Y010975D01*
X000800Y010975D01*
X000875Y010900D01*
X000875Y010675D01*
X000950Y010556D02*
X001025Y010631D01*
X001025Y010781D01*
X000950Y010856D01*
X000800Y010856D01*
X000725Y010781D01*
X000725Y010706D01*
X000800Y010556D01*
X001025Y010675D02*
X000575Y010675D01*
X000575Y010900D01*
X000725Y011135D02*
X000575Y011286D01*
X000725Y011436D01*
X001025Y011436D01*
X001025Y011596D02*
X001025Y011821D01*
X000950Y011896D01*
X000650Y011896D01*
X000575Y011821D01*
X000575Y011596D01*
X001025Y011596D01*
X001025Y011135D02*
X000725Y011135D01*
X000800Y011135D02*
X000800Y011436D01*
X000800Y012056D02*
X000650Y012206D01*
X000575Y012356D01*
X000575Y012400D02*
X000650Y012475D01*
X000800Y012475D01*
X000875Y012400D01*
X000875Y012175D01*
X000800Y012281D02*
X000875Y012356D01*
X000950Y012356D01*
X001025Y012281D01*
X001025Y012131D01*
X000950Y012056D01*
X000800Y012056D01*
X000800Y012281D01*
X001025Y012175D02*
X000575Y012175D01*
X000575Y012400D01*
X000725Y012635D02*
X000575Y012786D01*
X000725Y012936D01*
X001025Y012936D01*
X001025Y013096D02*
X001025Y013321D01*
X000950Y013396D01*
X000650Y013396D01*
X000575Y013321D01*
X000575Y013096D01*
X001025Y013096D01*
X001025Y013556D02*
X000950Y013556D01*
X000650Y013856D01*
X000575Y013856D01*
X000575Y013556D01*
X000575Y013675D02*
X000575Y013900D01*
X000650Y013975D01*
X000800Y013975D01*
X000875Y013900D01*
X000875Y013675D01*
X001025Y013675D02*
X000575Y013675D01*
X000725Y014135D02*
X000575Y014286D01*
X000725Y014436D01*
X001025Y014436D01*
X001025Y014596D02*
X001025Y014821D01*
X000950Y014896D01*
X000650Y014896D01*
X000575Y014821D01*
X000575Y014596D01*
X001025Y014596D01*
X001025Y014135D02*
X000725Y014135D01*
X000800Y014135D02*
X000800Y014436D01*
X000875Y015056D02*
X000800Y015131D01*
X000800Y015281D01*
X000875Y015356D01*
X000950Y015356D01*
X001025Y015281D01*
X001025Y015131D01*
X000950Y015056D01*
X000875Y015056D01*
X000800Y015131D02*
X000725Y015056D01*
X000650Y015056D01*
X000575Y015131D01*
X000575Y015281D01*
X000650Y015356D01*
X000725Y015356D01*
X000800Y015281D01*
X000875Y015175D02*
X000875Y015400D01*
X000800Y015475D01*
X000650Y015475D01*
X000575Y015400D01*
X000575Y015175D01*
X001025Y015175D01*
X001025Y015635D02*
X000725Y015635D01*
X000575Y015786D01*
X000725Y015936D01*
X001025Y015936D01*
X001025Y016096D02*
X001025Y016321D01*
X000950Y016396D01*
X000650Y016396D01*
X000575Y016321D01*
X000575Y016096D01*
X001025Y016096D01*
X000800Y015936D02*
X000800Y015635D01*
X000725Y016556D02*
X000650Y016556D01*
X000575Y016631D01*
X000575Y016781D01*
X000650Y016856D01*
X000950Y016856D01*
X001025Y016781D01*
X001025Y016631D01*
X000950Y016556D01*
X001025Y016675D02*
X000575Y016675D01*
X000575Y016900D01*
X000650Y016975D01*
X000800Y016975D01*
X000875Y016900D01*
X000875Y016675D01*
X000800Y016631D02*
X000800Y016856D01*
X000800Y016631D02*
X000725Y016556D01*
X000725Y017135D02*
X000575Y017286D01*
X000725Y017436D01*
X001025Y017436D01*
X001025Y017596D02*
X001025Y017821D01*
X000950Y017896D01*
X000650Y017896D01*
X000575Y017821D01*
X000575Y017596D01*
X001025Y017596D01*
X001025Y018056D02*
X001025Y018356D01*
X001025Y018206D02*
X000575Y018206D01*
X000725Y018056D01*
X000875Y018175D02*
X000875Y018400D01*
X000800Y018475D01*
X000650Y018475D01*
X000575Y018400D01*
X000575Y018175D01*
X001025Y018175D01*
X000950Y018517D02*
X000650Y018817D01*
X000950Y018817D01*
X001025Y018742D01*
X001025Y018592D01*
X000950Y018517D01*
X000650Y018517D01*
X000575Y018592D01*
X000575Y018742D01*
X000650Y018817D01*
X000575Y018786D02*
X000725Y018936D01*
X001025Y018936D01*
X001025Y019096D02*
X001025Y019321D01*
X000950Y019396D01*
X000650Y019396D01*
X000575Y019321D01*
X000575Y019096D01*
X001025Y019096D01*
X001025Y018635D02*
X000725Y018635D01*
X000575Y018786D01*
X000800Y018635D02*
X000800Y018936D01*
X000725Y019556D02*
X000575Y019706D01*
X001025Y019706D01*
X001025Y019675D02*
X000575Y019675D01*
X000575Y019900D01*
X000650Y019975D01*
X000800Y019975D01*
X000875Y019900D01*
X000875Y019675D01*
X001025Y019556D02*
X001025Y019856D01*
X001025Y020017D02*
X001025Y020317D01*
X001025Y020436D02*
X000725Y020436D01*
X000575Y020286D01*
X000725Y020135D01*
X001025Y020135D01*
X001025Y020167D02*
X000575Y020167D01*
X000725Y020017D01*
X000800Y020135D02*
X000800Y020436D01*
X000575Y020596D02*
X001025Y020596D01*
X001025Y020821D01*
X000950Y020896D01*
X000650Y020896D01*
X000575Y020821D01*
X000575Y020596D01*
X000725Y021056D02*
X000575Y021206D01*
X001025Y021206D01*
X001025Y021175D02*
X000575Y021175D01*
X000575Y021400D01*
X000650Y021475D01*
X000800Y021475D01*
X000875Y021400D01*
X000875Y021175D01*
X001025Y021056D02*
X001025Y021356D01*
X001025Y021517D02*
X000725Y021817D01*
X000650Y021817D01*
X000575Y021742D01*
X000575Y021592D01*
X000650Y021517D01*
X000725Y021635D02*
X000575Y021786D01*
X000725Y021936D01*
X001025Y021936D01*
X001025Y021817D02*
X001025Y021517D01*
X001025Y021635D02*
X000725Y021635D01*
X000800Y021635D02*
X000800Y021936D01*
X000575Y022096D02*
X001025Y022096D01*
X001025Y022321D01*
X000950Y022396D01*
X000650Y022396D01*
X000575Y022321D01*
X000575Y022096D01*
X000725Y022556D02*
X000575Y022706D01*
X001025Y022706D01*
X001025Y022675D02*
X000575Y022675D01*
X000575Y022900D01*
X000650Y022975D01*
X000800Y022975D01*
X000875Y022900D01*
X000875Y022675D01*
X001025Y022556D02*
X001025Y022856D01*
X000950Y023017D02*
X001025Y023092D01*
X001025Y023242D01*
X000950Y023317D01*
X000875Y023317D01*
X000800Y023242D01*
X000800Y023167D01*
X000800Y023135D02*
X000800Y023436D01*
X000725Y023436D02*
X001025Y023436D01*
X001025Y023596D02*
X001025Y023821D01*
X000950Y023896D01*
X000650Y023896D01*
X000575Y023821D01*
X000575Y023596D01*
X001025Y023596D01*
X001025Y023135D02*
X000725Y023135D01*
X000575Y023286D01*
X000725Y023436D01*
X000725Y023317D02*
X000800Y023242D01*
X000725Y023317D02*
X000650Y023317D01*
X000575Y023242D01*
X000575Y023092D01*
X000650Y023017D01*
X000725Y024056D02*
X000575Y024206D01*
X001025Y024206D01*
X001025Y024175D02*
X000575Y024175D01*
X000575Y024400D01*
X000650Y024475D01*
X000800Y024475D01*
X000875Y024400D01*
X000875Y024175D01*
X001025Y024056D02*
X001025Y024356D01*
X001025Y024635D02*
X000725Y024635D01*
X000575Y024786D01*
X000725Y024936D01*
X001025Y024936D01*
X001025Y025096D02*
X001025Y025321D01*
X000950Y025396D01*
X000650Y025396D01*
X000575Y025321D01*
X000575Y025096D01*
X001025Y025096D01*
X001025Y024742D02*
X000575Y024742D01*
X000800Y024517D01*
X000800Y024817D01*
X000800Y024936D02*
X000800Y024635D01*
X000725Y025556D02*
X000575Y025706D01*
X001025Y025706D01*
X001025Y025675D02*
X000575Y025675D01*
X000575Y025900D01*
X000650Y025975D01*
X000800Y025975D01*
X000875Y025900D01*
X000875Y025675D01*
X001025Y025556D02*
X001025Y025856D01*
X000950Y026017D02*
X001025Y026092D01*
X001025Y026242D01*
X000950Y026317D01*
X000800Y026317D01*
X000725Y026242D01*
X000725Y026167D01*
X000800Y026017D01*
X000575Y026017D01*
X000575Y026317D01*
X000575Y026286D02*
X000725Y026436D01*
X001025Y026436D01*
X001025Y026596D02*
X001025Y026821D01*
X000950Y026896D01*
X000650Y026896D01*
X000575Y026821D01*
X000575Y026596D01*
X001025Y026596D01*
X001025Y027056D02*
X001025Y027356D01*
X001025Y027206D02*
X000575Y027206D01*
X000725Y027056D01*
X000875Y027175D02*
X000875Y027400D01*
X000800Y027475D01*
X000650Y027475D01*
X000575Y027400D01*
X000575Y027175D01*
X001025Y027175D01*
X000950Y027517D02*
X001025Y027592D01*
X001025Y027742D01*
X000950Y027817D01*
X000875Y027817D01*
X000800Y027742D01*
X000800Y027517D01*
X000950Y027517D01*
X001025Y027635D02*
X000725Y027635D01*
X000575Y027786D01*
X000725Y027936D01*
X001025Y027936D01*
X001025Y028096D02*
X001025Y028321D01*
X000950Y028396D01*
X000650Y028396D01*
X000575Y028321D01*
X000575Y028096D01*
X001025Y028096D01*
X001025Y028556D02*
X001025Y028856D01*
X001025Y028706D02*
X000575Y028706D01*
X000725Y028556D01*
X000875Y028675D02*
X000875Y028900D01*
X000800Y028975D01*
X000650Y028975D01*
X000575Y028900D01*
X000575Y028675D01*
X001025Y028675D01*
X001025Y029017D02*
X000950Y029017D01*
X000650Y029317D01*
X000575Y029317D01*
X000575Y029017D01*
X000725Y029135D02*
X000575Y029286D01*
X000725Y029436D01*
X001025Y029436D01*
X001025Y029596D02*
X001025Y029821D01*
X000950Y029896D01*
X000650Y029896D01*
X000575Y029821D01*
X000575Y029596D01*
X001025Y029596D01*
X001025Y030056D02*
X001025Y030356D01*
X001025Y030206D02*
X000575Y030206D01*
X000725Y030056D01*
X000875Y030175D02*
X000875Y030400D01*
X000800Y030475D01*
X000650Y030475D01*
X000575Y030400D01*
X000575Y030175D01*
X001025Y030175D01*
X000950Y030517D02*
X000875Y030517D01*
X000800Y030592D01*
X000800Y030742D01*
X000875Y030817D01*
X000950Y030817D01*
X001025Y030742D01*
X001025Y030592D01*
X000950Y030517D01*
X001025Y030635D02*
X000725Y030635D01*
X000575Y030786D01*
X000725Y030936D01*
X001025Y030936D01*
X001025Y031096D02*
X001025Y031321D01*
X000950Y031396D01*
X000650Y031396D01*
X000575Y031321D01*
X000575Y031096D01*
X001025Y031096D01*
X000800Y030936D02*
X000800Y030635D01*
X000800Y030592D02*
X000725Y030517D01*
X000650Y030517D01*
X000575Y030592D01*
X000575Y030742D01*
X000650Y030817D01*
X000725Y030817D01*
X000800Y030742D01*
X000725Y031556D02*
X000575Y031706D01*
X001025Y031706D01*
X001025Y031675D02*
X000575Y031675D01*
X000575Y031900D01*
X000650Y031975D01*
X000800Y031975D01*
X000875Y031900D01*
X000875Y031675D01*
X001025Y031556D02*
X001025Y031856D01*
X000950Y032017D02*
X001025Y032092D01*
X001025Y032242D01*
X000950Y032317D01*
X000650Y032317D01*
X000575Y032242D01*
X000575Y032092D01*
X000650Y032017D01*
X000725Y032017D01*
X000800Y032092D01*
X000800Y032317D01*
X000800Y032436D02*
X000800Y032135D01*
X000725Y032135D02*
X000575Y032286D01*
X000725Y032436D01*
X001025Y032436D01*
X001025Y032596D02*
X001025Y032821D01*
X000950Y032896D01*
X000650Y032896D01*
X000575Y032821D01*
X000575Y032596D01*
X001025Y032596D01*
X001025Y033056D02*
X000725Y033356D01*
X000650Y033356D01*
X000575Y033281D01*
X000575Y033131D01*
X000650Y033056D01*
X000650Y033517D02*
X000575Y033592D01*
X000575Y033742D01*
X000650Y033817D01*
X000950Y033517D01*
X001025Y033592D01*
X001025Y033742D01*
X000950Y033817D01*
X000650Y033817D01*
X000650Y033517D02*
X000950Y033517D01*
X001025Y033356D02*
X001025Y033056D01*
X001025Y032135D02*
X000725Y032135D01*
X000800Y029436D02*
X000800Y029135D01*
X000725Y029135D02*
X001025Y029135D01*
X000800Y027936D02*
X000800Y027635D01*
X000800Y027517D02*
X000650Y027667D01*
X000575Y027817D01*
X000800Y026436D02*
X000800Y026135D01*
X000725Y026135D02*
X000575Y026286D01*
X000725Y026135D02*
X001025Y026135D01*
X000800Y017436D02*
X000800Y017135D01*
X000725Y017135D02*
X001025Y017135D01*
X000800Y012936D02*
X000800Y012635D01*
X000725Y012635D02*
X001025Y012635D01*
X000800Y008436D02*
X000800Y008135D01*
X000725Y008135D02*
X001025Y008135D01*
X016175Y008115D02*
X016175Y008415D01*
X016250Y008415D01*
X016550Y008115D01*
X016625Y008115D01*
X016625Y008233D02*
X016325Y008233D01*
X016175Y008384D01*
X016325Y008534D01*
X016625Y008534D01*
X016625Y008694D02*
X016625Y008919D01*
X016550Y008994D01*
X016250Y008994D01*
X016175Y008919D01*
X016175Y008694D01*
X016625Y008694D01*
X016400Y008534D02*
X016400Y008233D01*
X016400Y008073D02*
X016250Y008073D01*
X016175Y007998D01*
X016175Y007773D01*
X016625Y007773D01*
X016625Y007729D02*
X016550Y007654D01*
X016625Y007729D02*
X016625Y007879D01*
X016550Y007954D01*
X016475Y007954D01*
X016400Y007879D01*
X016400Y007804D01*
X016400Y007879D02*
X016325Y007954D01*
X016250Y007954D01*
X016175Y007879D01*
X016175Y007729D01*
X016250Y007654D01*
X016250Y007494D02*
X016175Y007419D01*
X016175Y007194D01*
X016625Y007194D01*
X016625Y007419D01*
X016550Y007494D01*
X016250Y007494D01*
X016475Y007773D02*
X016475Y007998D01*
X016400Y008073D01*
X016400Y007034D02*
X016400Y006733D01*
X016400Y006690D02*
X016400Y006840D01*
X016475Y006915D01*
X016550Y006915D01*
X016625Y006840D01*
X016625Y006690D01*
X016550Y006615D01*
X016475Y006615D01*
X016400Y006690D01*
X016325Y006615D01*
X016250Y006615D01*
X016175Y006690D01*
X016175Y006840D01*
X016250Y006915D01*
X016325Y006915D01*
X016400Y006840D01*
X016325Y006733D02*
X016175Y006884D01*
X016325Y007034D01*
X016625Y007034D01*
X016625Y006733D02*
X016325Y006733D01*
X016250Y006573D02*
X016400Y006573D01*
X016475Y006498D01*
X016475Y006273D01*
X016400Y006304D02*
X016400Y006379D01*
X016475Y006454D01*
X016550Y006454D01*
X016625Y006379D01*
X016625Y006229D01*
X016550Y006154D01*
X016625Y006273D02*
X016175Y006273D01*
X016175Y006498D01*
X016250Y006573D01*
X016250Y006454D02*
X016175Y006379D01*
X016175Y006229D01*
X016250Y006154D01*
X016250Y005994D02*
X016175Y005919D01*
X016175Y005694D01*
X016625Y005694D01*
X016625Y005919D01*
X016550Y005994D01*
X016250Y005994D01*
X016400Y006379D02*
X016325Y006454D01*
X016250Y006454D01*
X016325Y005534D02*
X016625Y005534D01*
X016550Y005415D02*
X016250Y005415D01*
X016175Y005340D01*
X016175Y005190D01*
X016250Y005115D01*
X016325Y005115D01*
X016400Y005190D01*
X016400Y005415D01*
X016400Y005534D02*
X016400Y005233D01*
X016325Y005233D02*
X016175Y005384D01*
X016325Y005534D01*
X016550Y005415D02*
X016625Y005340D01*
X016625Y005190D01*
X016550Y005115D01*
X016475Y004998D02*
X016475Y004773D01*
X016400Y004804D02*
X016400Y004879D01*
X016475Y004954D01*
X016550Y004954D01*
X016625Y004879D01*
X016625Y004729D01*
X016550Y004654D01*
X016625Y004773D02*
X016175Y004773D01*
X016175Y004998D01*
X016250Y005073D01*
X016400Y005073D01*
X016475Y004998D01*
X016400Y004879D02*
X016325Y004954D01*
X016250Y004954D01*
X016175Y004879D01*
X016175Y004729D01*
X016250Y004654D01*
X016250Y004494D02*
X016175Y004419D01*
X016175Y004194D01*
X016625Y004194D01*
X016625Y004419D01*
X016550Y004494D01*
X016250Y004494D01*
X016325Y004034D02*
X016175Y003884D01*
X016325Y003733D01*
X016625Y003733D01*
X016625Y003690D02*
X016550Y003615D01*
X016250Y003915D01*
X016550Y003915D01*
X016625Y003840D01*
X016625Y003690D01*
X016550Y003615D02*
X016250Y003615D01*
X016175Y003690D01*
X016175Y003840D01*
X016250Y003915D01*
X016325Y004034D02*
X016625Y004034D01*
X016400Y004034D02*
X016400Y003733D01*
X016400Y003573D02*
X016475Y003498D01*
X016475Y003273D01*
X016400Y003154D02*
X016400Y003454D01*
X016400Y003573D02*
X016250Y003573D01*
X016175Y003498D01*
X016175Y003273D01*
X016625Y003273D01*
X016625Y003379D02*
X016175Y003379D01*
X016400Y003154D01*
X016550Y002994D02*
X016250Y002994D01*
X016175Y002919D01*
X016175Y002694D01*
X016625Y002694D01*
X016625Y002919D01*
X016550Y002994D01*
X016625Y002534D02*
X016325Y002534D01*
X016175Y002384D01*
X016325Y002233D01*
X016625Y002233D01*
X016400Y002233D02*
X016400Y002534D01*
X016400Y002073D02*
X016250Y002073D01*
X016175Y001998D01*
X016175Y001773D01*
X016625Y001773D01*
X016475Y001773D02*
X016475Y001998D01*
X016400Y002073D01*
X016325Y005233D02*
X016625Y005233D01*
X016550Y009154D02*
X016625Y009229D01*
X016625Y009379D01*
X016550Y009454D01*
X016475Y009454D01*
X016400Y009379D01*
X016400Y009304D01*
X016400Y009379D02*
X016325Y009454D01*
X016250Y009454D01*
X016175Y009379D01*
X016175Y009229D01*
X016250Y009154D01*
X016175Y009273D02*
X016175Y009498D01*
X016250Y009573D01*
X016400Y009573D01*
X016475Y009498D01*
X016475Y009273D01*
X016625Y009273D02*
X016175Y009273D01*
X016400Y009615D02*
X016250Y009765D01*
X016175Y009915D01*
X016175Y009884D02*
X016325Y010034D01*
X016625Y010034D01*
X016550Y009915D02*
X016475Y009915D01*
X016400Y009840D01*
X016400Y009615D01*
X016550Y009615D01*
X016625Y009690D01*
X016625Y009840D01*
X016550Y009915D01*
X016400Y010034D02*
X016400Y009733D01*
X016325Y009733D02*
X016175Y009884D01*
X016325Y009733D02*
X016625Y009733D01*
X016625Y010194D02*
X016625Y010419D01*
X016550Y010494D01*
X016250Y010494D01*
X016175Y010419D01*
X016175Y010194D01*
X016625Y010194D01*
X016550Y010654D02*
X016625Y010729D01*
X016625Y010879D01*
X016550Y010954D01*
X016475Y010954D01*
X016400Y010879D01*
X016400Y010804D01*
X016400Y010879D02*
X016325Y010954D01*
X016250Y010954D01*
X016175Y010879D01*
X016175Y010729D01*
X016250Y010654D01*
X016175Y010773D02*
X016175Y010998D01*
X016250Y011073D01*
X016400Y011073D01*
X016475Y010998D01*
X016475Y010773D01*
X016625Y010773D02*
X016175Y010773D01*
X016175Y011115D02*
X016400Y011115D01*
X016325Y011265D01*
X016325Y011340D01*
X016400Y011415D01*
X016550Y011415D01*
X016625Y011340D01*
X016625Y011190D01*
X016550Y011115D01*
X016625Y011233D02*
X016325Y011233D01*
X016175Y011384D01*
X016325Y011534D01*
X016625Y011534D01*
X016625Y011694D02*
X016625Y011919D01*
X016550Y011994D01*
X016250Y011994D01*
X016175Y011919D01*
X016175Y011694D01*
X016625Y011694D01*
X016400Y011534D02*
X016400Y011233D01*
X016175Y011115D02*
X016175Y011415D01*
X016250Y012154D02*
X016175Y012229D01*
X016175Y012379D01*
X016250Y012454D01*
X016325Y012454D01*
X016400Y012379D01*
X016475Y012454D01*
X016550Y012454D01*
X016625Y012379D01*
X016625Y012229D01*
X016550Y012154D01*
X016625Y012273D02*
X016175Y012273D01*
X016175Y012498D01*
X016250Y012573D01*
X016400Y012573D01*
X016475Y012498D01*
X016475Y012273D01*
X016400Y012304D02*
X016400Y012379D01*
X016400Y012615D02*
X016400Y012915D01*
X016400Y013034D02*
X016400Y012733D01*
X016325Y012733D02*
X016175Y012884D01*
X016325Y013034D01*
X016625Y013034D01*
X016625Y013194D02*
X016625Y013419D01*
X016550Y013494D01*
X016250Y013494D01*
X016175Y013419D01*
X016175Y013194D01*
X016625Y013194D01*
X016625Y012840D02*
X016175Y012840D01*
X016400Y012615D01*
X016325Y012733D02*
X016625Y012733D01*
X016550Y013654D02*
X016625Y013729D01*
X016625Y013879D01*
X016550Y013954D01*
X016475Y013954D01*
X016400Y013879D01*
X016400Y013804D01*
X016400Y013879D02*
X016325Y013954D01*
X016250Y013954D01*
X016175Y013879D01*
X016175Y013729D01*
X016250Y013654D01*
X016175Y013773D02*
X016175Y013998D01*
X016250Y014073D01*
X016400Y014073D01*
X016475Y013998D01*
X016475Y013773D01*
X016625Y013773D02*
X016175Y013773D01*
X016250Y014115D02*
X016175Y014190D01*
X016175Y014340D01*
X016250Y014415D01*
X016325Y014415D01*
X016400Y014340D01*
X016475Y014415D01*
X016550Y014415D01*
X016625Y014340D01*
X016625Y014190D01*
X016550Y014115D01*
X016625Y014233D02*
X016325Y014233D01*
X016175Y014384D01*
X016325Y014534D01*
X016625Y014534D01*
X016625Y014694D02*
X016625Y014919D01*
X016550Y014994D01*
X016250Y014994D01*
X016175Y014919D01*
X016175Y014694D01*
X016625Y014694D01*
X016400Y014534D02*
X016400Y014233D01*
X016400Y014265D02*
X016400Y014340D01*
X016550Y015154D02*
X016625Y015229D01*
X016625Y015379D01*
X016550Y015454D01*
X016475Y015454D01*
X016400Y015379D01*
X016400Y015304D01*
X016400Y015379D02*
X016325Y015454D01*
X016250Y015454D01*
X016175Y015379D01*
X016175Y015229D01*
X016250Y015154D01*
X016175Y015273D02*
X016175Y015498D01*
X016250Y015573D01*
X016400Y015573D01*
X016475Y015498D01*
X016475Y015273D01*
X016625Y015273D02*
X016175Y015273D01*
X016250Y015615D02*
X016175Y015690D01*
X016175Y015840D01*
X016250Y015915D01*
X016325Y015915D01*
X016625Y015615D01*
X016625Y015915D01*
X016625Y016034D02*
X016325Y016034D01*
X016175Y015884D01*
X016325Y015733D01*
X016625Y015733D01*
X016400Y015733D02*
X016400Y016034D01*
X016625Y016194D02*
X016625Y016419D01*
X016550Y016494D01*
X016250Y016494D01*
X016175Y016419D01*
X016175Y016194D01*
X016625Y016194D01*
X016550Y016654D02*
X016625Y016729D01*
X016625Y016879D01*
X016550Y016954D01*
X016475Y016954D01*
X016400Y016879D01*
X016400Y016804D01*
X016400Y016879D02*
X016325Y016954D01*
X016250Y016954D01*
X016175Y016879D01*
X016175Y016729D01*
X016250Y016654D01*
X016175Y016773D02*
X016175Y016998D01*
X016250Y017073D01*
X016400Y017073D01*
X016475Y016998D01*
X016475Y016773D01*
X016625Y016773D02*
X016175Y016773D01*
X016325Y017115D02*
X016175Y017265D01*
X016625Y017265D01*
X016625Y017233D02*
X016325Y017233D01*
X016175Y017384D01*
X016325Y017534D01*
X016625Y017534D01*
X016625Y017415D02*
X016625Y017115D01*
X016400Y017233D02*
X016400Y017534D01*
X016625Y017694D02*
X016625Y017919D01*
X016550Y017994D01*
X016250Y017994D01*
X016175Y017919D01*
X016175Y017694D01*
X016625Y017694D01*
X016550Y018154D02*
X016625Y018229D01*
X016625Y018379D01*
X016550Y018454D01*
X016475Y018454D01*
X016400Y018379D01*
X016400Y018304D01*
X016400Y018379D02*
X016325Y018454D01*
X016250Y018454D01*
X016175Y018379D01*
X016175Y018229D01*
X016250Y018154D01*
X016175Y018273D02*
X016175Y018498D01*
X016250Y018573D01*
X016400Y018573D01*
X016475Y018498D01*
X016475Y018273D01*
X016625Y018273D02*
X016175Y018273D01*
X016250Y018615D02*
X016175Y018690D01*
X016175Y018840D01*
X016250Y018915D01*
X016550Y018615D01*
X016625Y018690D01*
X016625Y018840D01*
X016550Y018915D01*
X016250Y018915D01*
X016175Y018884D02*
X016325Y019034D01*
X016625Y019034D01*
X016625Y019194D02*
X016625Y019419D01*
X016550Y019494D01*
X016250Y019494D01*
X016175Y019419D01*
X016175Y019194D01*
X016625Y019194D01*
X016400Y019034D02*
X016400Y018733D01*
X016325Y018733D02*
X016175Y018884D01*
X016325Y018733D02*
X016625Y018733D01*
X016550Y018615D02*
X016250Y018615D01*
X016250Y019654D02*
X016175Y019729D01*
X016175Y019879D01*
X016250Y019954D01*
X016325Y019954D01*
X016625Y019654D01*
X016625Y019954D01*
X016475Y019998D02*
X016475Y019773D01*
X016625Y019773D02*
X016175Y019773D01*
X016175Y019998D01*
X016250Y020073D01*
X016400Y020073D01*
X016475Y019998D01*
X016550Y020115D02*
X016625Y020190D01*
X016625Y020340D01*
X016550Y020415D01*
X016250Y020415D01*
X016175Y020340D01*
X016175Y020190D01*
X016250Y020115D01*
X016325Y020115D01*
X016400Y020190D01*
X016400Y020415D01*
X016400Y020534D02*
X016400Y020233D01*
X016325Y020233D02*
X016175Y020384D01*
X016325Y020534D01*
X016625Y020534D01*
X016625Y020694D02*
X016625Y020919D01*
X016550Y020994D01*
X016250Y020994D01*
X016175Y020919D01*
X016175Y020694D01*
X016625Y020694D01*
X016625Y021154D02*
X016325Y021454D01*
X016250Y021454D01*
X016175Y021379D01*
X016175Y021229D01*
X016250Y021154D01*
X016175Y021273D02*
X016175Y021498D01*
X016250Y021573D01*
X016400Y021573D01*
X016475Y021498D01*
X016475Y021273D01*
X016625Y021273D02*
X016175Y021273D01*
X016250Y021615D02*
X016175Y021690D01*
X016175Y021840D01*
X016250Y021915D01*
X016325Y021915D01*
X016400Y021840D01*
X016400Y021690D01*
X016325Y021615D01*
X016250Y021615D01*
X016325Y021733D02*
X016175Y021884D01*
X016325Y022034D01*
X016625Y022034D01*
X016550Y021915D02*
X016625Y021840D01*
X016625Y021690D01*
X016550Y021615D01*
X016475Y021615D01*
X016400Y021690D01*
X016400Y021733D02*
X016400Y022034D01*
X016475Y021915D02*
X016550Y021915D01*
X016475Y021915D02*
X016400Y021840D01*
X016325Y021733D02*
X016625Y021733D01*
X016625Y021454D02*
X016625Y021154D01*
X016625Y020233D02*
X016325Y020233D01*
X016175Y022194D02*
X016175Y022419D01*
X016250Y022494D01*
X016550Y022494D01*
X016625Y022419D01*
X016625Y022194D01*
X016175Y022194D01*
X016250Y022654D02*
X016175Y022729D01*
X016175Y022879D01*
X016250Y022954D01*
X016325Y022954D01*
X016625Y022654D01*
X016625Y022954D01*
X016475Y022998D02*
X016475Y022773D01*
X016625Y022773D02*
X016175Y022773D01*
X016175Y022998D01*
X016250Y023073D01*
X016400Y023073D01*
X016475Y022998D01*
X016550Y023115D02*
X016625Y023115D01*
X016550Y023115D02*
X016250Y023415D01*
X016175Y023415D01*
X016175Y023115D01*
X016325Y023233D02*
X016175Y023384D01*
X016325Y023534D01*
X016625Y023534D01*
X016625Y023694D02*
X016625Y023919D01*
X016550Y023994D01*
X016250Y023994D01*
X016175Y023919D01*
X016175Y023694D01*
X016625Y023694D01*
X016400Y023534D02*
X016400Y023233D01*
X016325Y023233D02*
X016625Y023233D01*
X016625Y024154D02*
X016325Y024454D01*
X016250Y024454D01*
X016175Y024379D01*
X016175Y024229D01*
X016250Y024154D01*
X016175Y024273D02*
X016175Y024498D01*
X016250Y024573D01*
X016400Y024573D01*
X016475Y024498D01*
X016475Y024273D01*
X016625Y024273D02*
X016175Y024273D01*
X016400Y024615D02*
X016250Y024765D01*
X016175Y024915D01*
X016175Y024884D02*
X016325Y025034D01*
X016625Y025034D01*
X016550Y024915D02*
X016475Y024915D01*
X016400Y024840D01*
X016400Y024615D01*
X016550Y024615D01*
X016625Y024690D01*
X016625Y024840D01*
X016550Y024915D01*
X016400Y025034D02*
X016400Y024733D01*
X016325Y024733D02*
X016175Y024884D01*
X016325Y024733D02*
X016625Y024733D01*
X016625Y024454D02*
X016625Y024154D01*
X016625Y025194D02*
X016175Y025194D01*
X016175Y025419D01*
X016250Y025494D01*
X016550Y025494D01*
X016625Y025419D01*
X016625Y025194D01*
X016625Y025654D02*
X016325Y025954D01*
X016250Y025954D01*
X016175Y025879D01*
X016175Y025729D01*
X016250Y025654D01*
X016175Y025773D02*
X016175Y025998D01*
X016250Y026073D01*
X016400Y026073D01*
X016475Y025998D01*
X016475Y025773D01*
X016625Y025773D02*
X016175Y025773D01*
X016175Y026115D02*
X016400Y026115D01*
X016325Y026265D01*
X016325Y026340D01*
X016400Y026415D01*
X016550Y026415D01*
X016625Y026340D01*
X016625Y026190D01*
X016550Y026115D01*
X016625Y026233D02*
X016325Y026233D01*
X016175Y026384D01*
X016325Y026534D01*
X016625Y026534D01*
X016625Y026694D02*
X016625Y026919D01*
X016550Y026994D01*
X016250Y026994D01*
X016175Y026919D01*
X016175Y026694D01*
X016625Y026694D01*
X016400Y026534D02*
X016400Y026233D01*
X016625Y025954D02*
X016625Y025654D01*
X016175Y026115D02*
X016175Y026415D01*
X016250Y027154D02*
X016175Y027229D01*
X016175Y027379D01*
X016250Y027454D01*
X016325Y027454D01*
X016625Y027154D01*
X016625Y027454D01*
X016475Y027498D02*
X016475Y027273D01*
X016625Y027273D02*
X016175Y027273D01*
X016175Y027498D01*
X016250Y027573D01*
X016400Y027573D01*
X016475Y027498D01*
X016400Y027615D02*
X016400Y027915D01*
X016400Y028034D02*
X016400Y027733D01*
X016325Y027733D02*
X016175Y027884D01*
X016325Y028034D01*
X016625Y028034D01*
X016625Y028194D02*
X016625Y028419D01*
X016550Y028494D01*
X016250Y028494D01*
X016175Y028419D01*
X016175Y028194D01*
X016625Y028194D01*
X016625Y027840D02*
X016175Y027840D01*
X016400Y027615D01*
X016325Y027733D02*
X016625Y027733D01*
X016625Y028654D02*
X016325Y028954D01*
X016250Y028954D01*
X016175Y028879D01*
X016175Y028729D01*
X016250Y028654D01*
X016175Y028773D02*
X016175Y028998D01*
X016250Y029073D01*
X016400Y029073D01*
X016475Y028998D01*
X016475Y028773D01*
X016625Y028773D02*
X016175Y028773D01*
X016250Y029115D02*
X016175Y029190D01*
X016175Y029340D01*
X016250Y029415D01*
X016325Y029415D01*
X016400Y029340D01*
X016475Y029415D01*
X016550Y029415D01*
X016625Y029340D01*
X016625Y029190D01*
X016550Y029115D01*
X016625Y029233D02*
X016325Y029233D01*
X016175Y029384D01*
X016325Y029534D01*
X016625Y029534D01*
X016625Y029694D02*
X016625Y029919D01*
X016550Y029994D01*
X016250Y029994D01*
X016175Y029919D01*
X016175Y029694D01*
X016625Y029694D01*
X016400Y029534D02*
X016400Y029233D01*
X016400Y029265D02*
X016400Y029340D01*
X016625Y028954D02*
X016625Y028654D01*
X016625Y030154D02*
X016325Y030454D01*
X016250Y030454D01*
X016175Y030379D01*
X016175Y030229D01*
X016250Y030154D01*
X016175Y030273D02*
X016175Y030498D01*
X016250Y030573D01*
X016400Y030573D01*
X016475Y030498D01*
X016475Y030273D01*
X016625Y030273D02*
X016175Y030273D01*
X016250Y030615D02*
X016175Y030690D01*
X016175Y030840D01*
X016250Y030915D01*
X016325Y030915D01*
X016625Y030615D01*
X016625Y030915D01*
X016625Y031034D02*
X016325Y031034D01*
X016175Y030884D01*
X016325Y030733D01*
X016625Y030733D01*
X016400Y030733D02*
X016400Y031034D01*
X016625Y031194D02*
X016625Y031419D01*
X016550Y031494D01*
X016250Y031494D01*
X016175Y031419D01*
X016175Y031194D01*
X016625Y031194D01*
X016625Y031654D02*
X016325Y031954D01*
X016250Y031954D01*
X016175Y031879D01*
X016175Y031729D01*
X016250Y031654D01*
X016325Y032115D02*
X016175Y032265D01*
X016625Y032265D01*
X016625Y032115D02*
X016625Y032415D01*
X016625Y031954D02*
X016625Y031654D01*
X016625Y030454D02*
X016625Y030154D01*
M02*
