G75*
G70*
%OFA0B0*%
%FSLAX24Y24*%
%IPPOS*%
%LPD*%
%AMOC8*
5,1,8,0,0,1.08239X$1,22.5*
%
%ADD10R,0.0157X0.0551*%
%ADD11R,0.0748X0.0925*%
%ADD12OC8,0.0930*%
D10*
X004761Y002880D03*
X004958Y002880D03*
X005155Y002880D03*
X005352Y002880D03*
X005549Y002880D03*
X005746Y002880D03*
X005943Y002880D03*
X006139Y002880D03*
X006336Y002880D03*
X006533Y002880D03*
X006730Y002880D03*
X006927Y002880D03*
X007124Y002880D03*
X007320Y002880D03*
X007517Y002880D03*
X007714Y002880D03*
X007911Y002880D03*
X008108Y002880D03*
X008305Y002880D03*
X008502Y002880D03*
X008698Y002880D03*
X008895Y002880D03*
X009092Y002880D03*
X009289Y002880D03*
X009486Y002880D03*
X009683Y002880D03*
X009880Y002880D03*
X010076Y002880D03*
X010273Y002880D03*
X010470Y002880D03*
X010667Y002880D03*
X010864Y002880D03*
X011061Y002880D03*
X011257Y002880D03*
X011454Y002880D03*
X011651Y002880D03*
X011848Y002880D03*
X012045Y002880D03*
X012242Y002880D03*
X012439Y002880D03*
D11*
X013187Y001600D03*
X004013Y001600D03*
D12*
X001600Y003600D03*
X001600Y005100D03*
X001600Y006600D03*
X001600Y008100D03*
X001600Y009600D03*
X001600Y011100D03*
X001600Y012600D03*
X001600Y014100D03*
X001600Y015600D03*
X001600Y017100D03*
X001600Y018600D03*
X001600Y020100D03*
X001600Y021600D03*
X001600Y023100D03*
X001600Y024600D03*
X001600Y026100D03*
X001600Y027600D03*
X001600Y029100D03*
X001600Y030600D03*
X001600Y032100D03*
X015600Y032100D03*
X015600Y030600D03*
X015600Y029100D03*
X015600Y027600D03*
X015600Y026100D03*
X015600Y024600D03*
X015600Y023100D03*
X015600Y021600D03*
X015600Y020100D03*
X015600Y018600D03*
X015600Y017100D03*
X015600Y015600D03*
X015600Y014100D03*
X015600Y012600D03*
X015600Y011100D03*
X015600Y009600D03*
X015600Y008100D03*
X015600Y006600D03*
X015600Y005100D03*
X015600Y003600D03*
M02*
